<?xml version="1.0" encoding="UTF-8"?>
<!DOCTYPE svg PUBLIC "-//W3C//DTD SVG 1.1//EN" "http://www.w3.org/Graphics/SVG/1.1/DTD/svg11.dtd">
<svg xmlns="http://www.w3.org/2000/svg" version="1.1" width="2000px" height="2000px" style="shape-rendering:geometricPrecision; text-rendering:geometricPrecision; image-rendering:optimizeQuality; fill-rule:evenodd; clip-rule:evenodd" xmlns:xlink="http://www.w3.org/1999/xlink">
<g><path style="opacity:0.999" fill="#e84142" d="M 955.5,-0.5 C 984.833,-0.5 1014.17,-0.5 1043.5,-0.5C 1297.13,14.3576 1515.46,108.858 1698.5,283C 1883.65,468.39 1983.98,692.557 1999.5,955.5C 1999.5,984.833 1999.5,1014.17 1999.5,1043.5C 1984.64,1297.13 1890.14,1515.47 1716,1698.5C 1530.61,1883.65 1306.44,1983.98 1043.5,1999.5C 1014.17,1999.5 984.833,1999.5 955.5,1999.5C 701.867,1984.64 483.534,1890.14 300.5,1716C 115.562,1530.91 15.2291,1307.07 -0.5,1044.5C -0.5,1014.5 -0.5,984.5 -0.5,954.5C 15.2278,691.932 115.561,468.099 300.5,283C 483.534,108.86 701.867,14.3604 955.5,-0.5 Z"/></g>
<g><path style="opacity:1" fill="#fefefe" d="M 987.5,251.5 C 1007.61,250.036 1024.94,256.202 1039.5,270C 1043.67,274.833 1047.83,279.667 1052,284.5C 1109,385.167 1166,485.833 1223,586.5C 1249.01,647.57 1247.34,707.903 1218,767.5C 1093,984.167 968,1200.83 843,1417.5C 807.872,1472.57 757.705,1504.07 692.5,1512C 578.5,1512.67 464.5,1512.67 350.5,1512C 305.644,1505.09 286.477,1479.26 293,1434.5C 295.948,1423.6 300.281,1413.27 306,1403.5C 515.333,1034.83 724.667,666.167 934,297.5C 945.932,275.051 963.766,259.718 987.5,251.5 Z"/></g>
<g><path style="opacity:1" fill="#fefefe" d="M 1406.5,980.5 C 1427.24,979.54 1444.9,986.373 1459.5,1001C 1463,1005.17 1466.5,1009.33 1470,1013.5C 1548.01,1148.18 1625.01,1283.52 1701,1419.5C 1709.96,1440.69 1709.63,1461.69 1700,1482.5C 1691.34,1495.26 1679.51,1503.76 1664.5,1508C 1657.6,1509.87 1650.6,1511.2 1643.5,1512C 1488.17,1512.67 1332.83,1512.67 1177.5,1512C 1127.94,1502.39 1109.78,1473.22 1123,1424.5C 1126.2,1415.77 1130.2,1407.44 1135,1399.5C 1208.59,1273.33 1281.92,1147 1355,1020.5C 1367.14,1000.51 1384.31,987.172 1406.5,980.5 Z"/></g>
</svg>
