<?xml version="1.0" encoding="UTF-8"?>
<!DOCTYPE svg PUBLIC "-//W3C//DTD SVG 1.1//EN" "http://www.w3.org/Graphics/SVG/1.1/DTD/svg11.dtd">
<svg xmlns="http://www.w3.org/2000/svg" version="1.1" width="48px" height="48px" style="shape-rendering:geometricPrecision; text-rendering:geometricPrecision; image-rendering:optimizeQuality; fill-rule:evenodd; clip-rule:evenodd" xmlns:xlink="http://www.w3.org/1999/xlink">
<g><path style="opacity:0.922" fill="#000009" d="M 21.5,6.5 C 24.6907,7.09223 27.6907,8.25889 30.5,10C 31.1222,11.5691 31.4555,13.2358 31.5,15C 31.2246,19.6962 31.0579,24.5295 31,29.5C 28.5794,30.9606 26.0794,32.2939 23.5,33.5C 20.9206,32.2939 18.4206,30.9606 16,29.5C 15.8333,28 15.6667,26.5 15.5,25C 15.7754,20.3038 15.9421,15.4705 16,10.5C 18.0153,9.30342 19.8487,7.97008 21.5,6.5 Z M 22.5,9.5 C 28.3128,10.473 29.8128,13.473 27,18.5C 24.3333,15.8333 21.6667,15.8333 19,18.5C 17.8441,14.4152 19.0108,11.4152 22.5,9.5 Z M 18.5,21.5 C 20.258,21.8769 21.9246,22.5435 23.5,23.5C 25.1694,22.1103 26.8361,21.7769 28.5,22.5C 26.6136,23.4063 24.7803,24.4063 23,25.5C 21.6325,23.1854 20.7991,23.1854 20.5,25.5C 20.8333,27.1667 21.8333,28.1667 23.5,28.5C 25.0778,27.3595 26.7445,26.8595 28.5,27C 26.6313,28.6017 24.6313,29.6017 22.5,30C 18.9489,28.3229 17.6155,25.4896 18.5,21.5 Z"/></g>
<g><path style="opacity:0.819" fill="#030009" d="M 16.5,34.5 C 21.1247,34.486 25.7913,34.486 30.5,34.5C 30.5875,37.5983 30.0875,37.9316 29,35.5C 26.3333,38.1667 23.6667,38.1667 21,35.5C 19.5993,37.1922 17.7659,37.8588 15.5,37.5C 15.2627,36.209 15.596,35.209 16.5,34.5 Z M 16.5,34.5 C 17.675,34.281 18.675,34.6143 19.5,35.5C 18.1405,36.6653 17.1405,36.332 16.5,34.5 Z"/></g>
<g><path style="opacity:0.861" fill="#030008" d="M 15.5,38.5 C 21.0214,38.0543 26.3548,38.5543 31.5,40C 27.3658,39.9813 23.3658,40.148 19.5,40.5C 17.6672,40.4146 16.3339,39.7479 15.5,38.5 Z"/></g>
</svg>
