<?xml version="1.0" standalone="no"?>
<!DOCTYPE svg PUBLIC "-//W3C//DTD SVG 20010904//EN"
 "http://www.w3.org/TR/2001/REC-SVG-20010904/DTD/svg10.dtd">
<svg version="1.0" xmlns="http://www.w3.org/2000/svg"
 width="2000.000000pt" height="2000.000000pt" viewBox="0 0 2000.000000 2000.000000"
 preserveAspectRatio="xMidYMid meet">

<g transform="translate(0.000000,2000.000000) scale(0.100000,-0.100000)"
fill="#0089DB" stroke="none">
<path d="M9645 19990 c-1466 -55 -2844 -410 -4140 -1065 -1030 -521 -1920
-1181 -2730 -2025 -1014 -1058 -1798 -2356 -2261 -3747 -242 -728 -399 -1477
-468 -2243 -53 -580 -53 -1229 0 -1825 131 -1484 607 -2940 1377 -4215 288
-477 594 -898 942 -1296 145 -167 565 -592 726 -735 1361 -1213 2960 -1899
4679 -2008 351 -23 873 -12 1235 25 1494 152 2905 758 4105 1763 382 320 798
740 1121 1131 1244 1507 2012 3418 2183 5430 103 1206 -25 2261 -396 3260
-179 481 -445 986 -729 1385 -772 1084 -1814 1775 -2944 1954 -198 31 -339 41
-580 41 -231 0 -373 -10 -552 -38 l-107 -17 89 -70 c906 -702 1603 -1649 2058
-2795 881 -2223 688 -4843 -506 -6835 -850 -1419 -2135 -2394 -3558 -2699
-903 -193 -1847 -115 -2726 227 -697 271 -1399 758 -1936 1344 -1107 1207
-1768 2828 -1877 4603 -41 669 24 1605 166 2383 426 2340 1531 4404 3154 5891
790 723 1652 1273 2610 1663 158 65 521 198 585 215 11 3 89 27 174 53 216 65
541 146 771 191 107 21 199 41 204 46 6 4 -26 8 -70 8 -45 0 -148 2 -230 4
-82 2 -248 1 -369 -4z"/>
<path d="M11475 19193 c-1292 -61 -2459 -414 -3560 -1076 -1658 -996 -2990
-2647 -3730 -4622 -524 -1399 -739 -3000 -584 -4340 310 -2683 2130 -4776
4318 -4966 206 -18 630 -7 816 21 83 12 152 24 155 27 3 2 -2 9 -11 13 -27 15
-269 209 -349 279 -415 364 -773 772 -1079 1229 -676 1011 -1090 2197 -1215
3482 -54 551 -45 1199 24 1760 116 934 401 1851 820 2631 754 1405 1896 2420
3225 2864 865 290 1793 320 2685 89 1243 -323 2334 -1142 3135 -2354 718
-1086 1138 -2380 1225 -3775 21 -332 10 -872 -25 -1305 -175 -2121 -950 -4161
-2188 -5760 -470 -606 -1023 -1169 -1608 -1632 -1070 -850 -2341 -1442 -3639
-1694 -107 -21 -199 -41 -203 -44 -27 -23 690 -16 1038 10 1746 131 3380 693
4820 1658 1708 1144 3023 2777 3768 4682 339 864 557 1788 641 2720 53 576 53
1240 0 1820 -146 1625 -683 3171 -1572 4530 -345 528 -679 938 -1141 1401
-275 274 -431 417 -681 618 -1208 977 -2615 1565 -4080 1706 -312 30 -729 42
-1005 28z"/>
</g>
</svg>
