<?xml version="1.0" encoding="UTF-8"?>
<!DOCTYPE svg PUBLIC "-//W3C//DTD SVG 1.1//EN" "http://www.w3.org/Graphics/SVG/1.1/DTD/svg11.dtd">
<svg xmlns="http://www.w3.org/2000/svg" version="1.1" width="48px" height="48px" style="shape-rendering:geometricPrecision; text-rendering:geometricPrecision; image-rendering:optimizeQuality; fill-rule:evenodd; clip-rule:evenodd" xmlns:xlink="http://www.w3.org/1999/xlink">
<g><path style="opacity:0.919" fill="#f6e667" d="M 24.5,4.5 C 24.5,9.16667 24.5,13.8333 24.5,18.5C 19.7756,19.8528 15.7756,22.1861 12.5,25.5C 12.1667,25.5 11.8333,25.5 11.5,25.5C 14.8647,17.7774 19.0314,10.4441 24,3.5C 24.3988,3.72845 24.5654,4.06178 24.5,4.5 Z"/></g>
<g><path style="opacity:0.946" fill="#f28975" d="M 24.5,4.5 C 28.7361,10.6283 32.7361,16.9616 36.5,23.5C 32.3017,22.7328 28.3017,21.3995 24.5,19.5C 24.5,19.1667 24.5,18.8333 24.5,18.5C 24.5,13.8333 24.5,9.16667 24.5,4.5 Z"/></g>
<g><path style="opacity:1" fill="#62bc76" d="M 24.5,18.5 C 24.5,18.8333 24.5,19.1667 24.5,19.5C 24.5,23.5 24.5,27.5 24.5,31.5C 24.1667,31.5 23.8333,31.5 23.5,31.5C 22.391,31.4431 21.391,31.1098 20.5,30.5C 20.5,29.8333 20.1667,29.5 19.5,29.5C 18.1667,28.8333 16.8333,28.1667 15.5,27.5C 15.5,26.8333 15.1667,26.5 14.5,26.5C 13.8333,26.1667 13.1667,25.8333 12.5,25.5C 15.7756,22.1861 19.7756,19.8528 24.5,18.5 Z"/></g>
<g><path style="opacity:1" fill="#a56aa4" d="M 24.5,19.5 C 28.3017,21.3995 32.3017,22.7328 36.5,23.5C 36.5,24.1667 36.5,24.8333 36.5,25.5C 35.391,25.5569 34.391,25.8902 33.5,26.5C 32.8333,26.5 32.5,26.8333 32.5,27.5C 31.1667,28.1667 29.8333,28.8333 28.5,29.5C 27.8333,29.5 27.5,29.8333 27.5,30.5C 26.609,31.1098 25.609,31.4431 24.5,31.5C 24.5,27.5 24.5,23.5 24.5,19.5 Z"/></g>
<g><path style="opacity:0.77" fill="#647bbf" d="M 36.5,25.5 C 33.4893,32.1965 29.4893,38.1965 24.5,43.5C 24.5,39.8333 24.5,36.1667 24.5,32.5C 24.5,32.1667 24.5,31.8333 24.5,31.5C 25.609,31.4431 26.609,31.1098 27.5,30.5C 28.1667,30.5 28.5,30.1667 28.5,29.5C 29.8333,28.8333 31.1667,28.1667 32.5,27.5C 33.1667,27.5 33.5,27.1667 33.5,26.5C 34.391,25.8902 35.391,25.5569 36.5,25.5 Z"/></g>
<g><path style="opacity:0.89" fill="#18adcf" d="M 11.5,25.5 C 11.8333,25.5 12.1667,25.5 12.5,25.5C 13.1667,25.8333 13.8333,26.1667 14.5,26.5C 15.1667,26.5 15.5,26.8333 15.5,27.5C 16.8333,28.1667 18.1667,28.8333 19.5,29.5C 20.1667,29.5 20.5,29.8333 20.5,30.5C 21.391,31.1098 22.391,31.4431 23.5,31.5C 23.5,32.1667 23.8333,32.5 24.5,32.5C 24.5,36.1667 24.5,39.8333 24.5,43.5C 23.6715,44.3324 22.8382,43.999 22,42.5C 17.9766,37.1123 14.4766,31.4456 11.5,25.5 Z"/></g>
</svg>
