<?xml version="1.0" encoding="UTF-8"?>
<!DOCTYPE svg PUBLIC "-//W3C//DTD SVG 1.1//EN" "http://www.w3.org/Graphics/SVG/1.1/DTD/svg11.dtd">
<svg xmlns="http://www.w3.org/2000/svg" version="1.1" width="48px" height="48px" style="shape-rendering:geometricPrecision; text-rendering:geometricPrecision; image-rendering:optimizeQuality; fill-rule:evenodd; clip-rule:evenodd" xmlns:xlink="http://www.w3.org/1999/xlink">
<g><path style="opacity:0.999" fill="#292929" d="M 26.5,38.5 C 29.3387,37.1944 31.6721,35.1944 33.5,32.5C 31.5742,33.2423 29.7409,34.2423 28,35.5C 27.3378,32.5834 25.5045,31.2501 22.5,31.5C 22.762,30.0222 22.4287,28.6888 21.5,27.5C 20.6858,29.7662 20.1858,32.0995 20,34.5C 18.7012,34.9662 17.2012,34.9662 15.5,34.5C 17.1667,35.8333 18.8333,37.1667 20.5,38.5C 12.5448,37.0394 8.21144,32.2061 7.5,24C 10.785,10.6935 18.785,6.36019 31.5,11C 41.2352,18.6574 41.9019,26.9907 33.5,36C 31.3496,37.4114 29.0163,38.2447 26.5,38.5 Z M 13.5,32.5 C 10.4254,30.6829 9.25873,28.0162 10,24.5C 10.9211,27.3358 12.0877,30.0024 13.5,32.5 Z M 33.5,32.5 C 34.9123,30.0024 36.0789,27.3358 37,24.5C 37.7413,28.0162 36.5746,30.6829 33.5,32.5 Z M 13.5,32.5 C 14.8333,32.5 15.5,33.1667 15.5,34.5C 14.5,34.1667 13.8333,33.5 13.5,32.5 Z"/></g>
<g><path style="opacity:1" fill="#fefffe" d="M 13.5,16.5 C 14.6879,17.6843 15.8545,17.6843 17,16.5C 17.882,20.0267 17.382,20.6934 15.5,18.5C 14.8076,19.0253 14.3076,19.6919 14,20.5C 13.51,19.2068 13.3433,17.8734 13.5,16.5 Z"/></g>
<g><path style="opacity:1" fill="#fbfbfb" d="M 25.5,17.5 C 24.7321,18.2625 24.2321,19.2625 24,20.5C 22.3745,20.1459 20.5412,20.1459 18.5,20.5C 18.5,19.1667 18.5,17.8333 18.5,16.5C 21.1918,16.8248 23.5252,17.1582 25.5,17.5 Z"/></g>
<g><path style="opacity:1" fill="#fcfcfc" d="M 25.5,17.5 C 27.8795,16.4331 28.8795,17.4331 28.5,20.5C 27.5,20.5 26.5,20.5 25.5,20.5C 25.5,19.5 25.5,18.5 25.5,17.5 Z"/></g>
<g><path style="opacity:1" fill="#f9f9f9" d="M 29.5,16.5 C 30.9778,16.238 32.3112,16.5713 33.5,17.5C 31.0087,18.5407 31.0087,19.3741 33.5,20C 32.2068,20.49 30.8734,20.6567 29.5,20.5C 29.5,19.1667 29.5,17.8333 29.5,16.5 Z"/></g>
<g><path style="opacity:1" fill="#222222" d="M 19.5,17.5 C 21.337,17.6395 21.6704,18.3061 20.5,19.5C 19.7025,19.0431 19.3691,18.3764 19.5,17.5 Z"/></g>
<g><path style="opacity:1" fill="#fbf6ec" d="M 18.5,24.5 C 19.98,22.3969 21.1466,22.3969 22,24.5C 25.0254,23.2092 25.3587,23.8758 23,26.5C 22.2588,25.3595 21.4255,25.3595 20.5,26.5C 19.8182,25.7573 19.1515,25.0906 18.5,24.5 Z"/></g>
<g><path style="opacity:1" fill="#e3eee1" d="M 25.5,22.5 C 26.7498,22.5774 27.5831,23.244 28,24.5C 28.414,24.0426 28.914,23.7093 29.5,23.5C 30.8333,24.5 30.8333,25.5 29.5,26.5C 28.5,25.1667 27.5,25.1667 26.5,26.5C 25.5713,25.3112 25.238,23.9778 25.5,22.5 Z"/></g>
<g><path style="opacity:1" fill="#fbfbfb" d="M 18.5,24.5 C 18.2533,26.9752 17.5866,26.9752 16.5,24.5C 16.9698,23.537 17.6365,23.537 18.5,24.5 Z"/></g>
<g><path style="opacity:0.192" fill="#6c6d6c" d="M 20.5,38.5 C 21.8333,39.1667 21.8333,39.1667 20.5,38.5 Z"/></g>
<g><path style="opacity:0.004" fill="#fefffe" d="M 26.5,38.5 C 25.8333,39.1667 25.8333,39.1667 26.5,38.5 Z"/></g>
</svg>
