<?xml version="1.0" encoding="UTF-8"?>
<!DOCTYPE svg PUBLIC "-//W3C//DTD SVG 1.1//EN" "http://www.w3.org/Graphics/SVG/1.1/DTD/svg11.dtd">
<svg xmlns="http://www.w3.org/2000/svg" version="1.1" width="48px" height="48px" style="shape-rendering:geometricPrecision; text-rendering:geometricPrecision; image-rendering:optimizeQuality; fill-rule:evenodd; clip-rule:evenodd" xmlns:xlink="http://www.w3.org/1999/xlink">
<g><path style="opacity:1" fill="#4742c8" d="M 34.5,13.5 C 37.6415,15.9829 39.3081,19.3162 39.5,23.5C 36.2793,37.4714 27.946,41.8047 14.5,36.5C 8.36347,30.2495 6.86347,22.9162 10,14.5C 10.6708,13.7476 11.5041,13.4142 12.5,13.5C 12.9081,12.3569 13.5748,11.3569 14.5,10.5C 19.6408,7.56612 24.8075,7.23279 30,9.5C 30.3333,9.16667 30.6667,8.83333 31,8.5C 31.9973,10.3231 33.1639,11.9897 34.5,13.5 Z"/></g>
<g><path style="opacity:1" fill="#fefefd" d="M 25.5,16.5 C 23.5774,19.2178 22.244,18.8845 21.5,15.5C 21.5,13.5 21.5,11.5 21.5,9.5C 22.8333,9.5 24.1667,9.5 25.5,9.5C 25.5,11.8333 25.5,14.1667 25.5,16.5 Z"/></g>
<g><path style="opacity:1" fill="#e8e9f3" d="M 18.5,15.5 C 18.719,16.675 18.3857,17.675 17.5,18.5C 16.8933,18.3764 16.56,18.0431 16.5,17.5C 14.9922,14.8599 15.3256,12.5266 17.5,10.5C 18.4519,12.0453 18.7852,13.712 18.5,15.5 Z"/></g>
<g><path style="opacity:1" fill="#f5f5f9" d="M 31.5,15.5 C 30.7321,16.2625 30.2321,17.2625 30,18.5C 29.6174,17.944 29.1174,17.6107 28.5,17.5C 28.1924,15.076 28.5258,12.7427 29.5,10.5C 30.9501,11.8498 31.6168,13.5165 31.5,15.5 Z"/></g>
<g><path style="opacity:0.008" fill="#75f9a8" d="M 7.5,12.5 C 7.89657,11.475 8.56323,11.3083 9.5,12C 8.90558,12.4643 8.23891,12.631 7.5,12.5 Z"/></g>
<g><path style="opacity:1" fill="#fdfdfc" d="M 34.5,13.5 C 35.4339,15.2385 35.4339,16.9052 34.5,18.5C 33.2121,16.7015 33.2121,15.0348 34.5,13.5 Z"/></g>
<g><path style="opacity:0.004" fill="#0000ff" d="M 7.5,14.5 C 8.83333,15.1667 8.83333,15.1667 7.5,14.5 Z"/></g>
<g><path style="opacity:1" fill="#fafbfb" d="M 12.5,13.5 C 13.7879,15.0348 13.7879,16.7015 12.5,18.5C 11.5661,16.9052 11.5661,15.2385 12.5,13.5 Z"/></g>
<g><path style="opacity:1" fill="#fefefe" d="M 13.5,20.5 C 13.0508,22.9775 13.7175,24.9775 15.5,26.5C 17.0863,24.8273 17.7529,22.8273 17.5,20.5C 21.5,20.5 25.5,20.5 29.5,20.5C 29.2471,22.8273 29.9137,24.8273 31.5,26.5C 33.2825,24.9775 33.9492,22.9775 33.5,20.5C 34.8333,20.5 36.1667,20.5 37.5,20.5C 39.0001,27.3296 36.3334,30.3296 29.5,29.5C 25.5,24.1667 21.5,24.1667 17.5,29.5C 10.6666,30.3296 7.99988,27.3296 9.5,20.5C 10.8333,20.5 12.1667,20.5 13.5,20.5 Z"/></g>
<g><path style="opacity:1" fill="#4367e3" d="M 18.5,15.5 C 19.5,15.5 20.5,15.5 21.5,15.5C 22.244,18.8845 23.5774,19.2178 25.5,16.5C 26.609,16.5569 27.609,16.8902 28.5,17.5C 29.1174,17.6107 29.6174,17.944 30,18.5C 30.2321,17.2625 30.7321,16.2625 31.5,15.5C 31.8925,17.2838 32.5592,18.9505 33.5,20.5C 33.9492,22.9775 33.2825,24.9775 31.5,26.5C 29.9137,24.8273 29.2471,22.8273 29.5,20.5C 25.5,20.5 21.5,20.5 17.5,20.5C 17.7529,22.8273 17.0863,24.8273 15.5,26.5C 13.7175,24.9775 13.0508,22.9775 13.5,20.5C 14.2719,19.3065 15.2719,18.3065 16.5,17.5C 16.56,18.0431 16.8933,18.3764 17.5,18.5C 18.3857,17.675 18.719,16.675 18.5,15.5 Z"/></g>
<g><path style="opacity:1" fill="#4676ed" d="M 29.5,29.5 C 25.5419,32.1572 21.5419,32.1572 17.5,29.5C 21.5,24.1667 25.5,24.1667 29.5,29.5 Z"/></g>
</svg>
