<?xml version="1.0" encoding="UTF-8"?>
<!DOCTYPE svg PUBLIC "-//W3C//DTD SVG 1.1//EN" "http://www.w3.org/Graphics/SVG/1.1/DTD/svg11.dtd">
<svg version="1.1" xmlns="http://www.w3.org/2000/svg" width="64" height="64">
<path d="M0 0 C1.46021611 0.88003008 2.90215377 1.79208167 4.3125 2.75 C5.67375 3.5853125 5.67375 3.5853125 7.0625 4.4375 C13.47694999 11.03012916 17.23787362 19.01230425 17.33984375 28.21875 C16.8007831 37.17545006 13.45531517 44.39186336 7.375 50.95703125 C2.34386958 55.3306844 -3.22415037 57.45733007 -9.6875 58.75 C-10.3475 54.79 -11.0075 50.83 -11.6875 46.75 C-10.4809375 45.821875 -10.4809375 45.821875 -9.25 44.875 C-6.26883286 42.40281262 -5.79629678 41.72917106 -5.375 37.9375 C-5.77371612 33.8705956 -6.57333771 32.39703795 -9.6875 29.75 C-13.46694906 28.9290541 -16.59545859 29.27398195 -20.125 30.8125 C-22.48009706 33.73282035 -22.62361417 36.04462195 -22.6875 39.75 C-21.07422226 43.4860116 -19.0689094 45.53459384 -15.6875 47.75 C-15.99548326 49.23011371 -16.309018 50.70907325 -16.625 52.1875 C-16.79902344 53.01121094 -16.97304688 53.83492187 -17.15234375 54.68359375 C-17.6875 56.75 -17.6875 56.75 -18.6875 57.75 C-26.98388244 57.41137215 -32.37876311 53.38891483 -38 47.5 C-43.85939528 40.51246967 -45.31410671 33.77314364 -45.02734375 24.734375 C-43.99100161 15.63362333 -39.47327865 8.76271526 -32.6875 2.75 C-23.38858824 -3.2503673 -10.15460233 -5.00060477 0 0 Z M-33.27734375 19.65234375 C-37.13071925 25.38437323 -37.47595152 31.02000311 -36.6875 37.75 C-35.47588761 41.3448311 -34.23823763 44.97463118 -30.6875 46.75 C-30.8525 46.13125 -31.0175 45.5125 -31.1875 44.875 C-32.27864785 38.05532592 -32.79056413 31.63105859 -28.6875 25.75 C-24.2619772 21.3244772 -20.09809954 18.8197328 -13.7109375 18.71875 C-8.73637153 19.10288637 -4.54214783 20.53127123 -0.6875 23.75 C3.8607969 29.8542932 4.79553284 35.8167326 3.875 43.3125 C3.5965625 44.5190625 3.5965625 44.5190625 3.3125 45.75 C6.83166679 42.70005545 8.3793184 40.3310733 9.3125 35.75 C9.41184 29.17148475 8.31206678 23.09039576 4.3125 17.75 C-1.0399173 12.61441837 -6.54750151 9.78759507 -14 9.375 C-22.4421583 9.63039302 -27.95652857 13.32522783 -33.27734375 19.65234375 Z " fill="#05CB59" transform="translate(45.6875,4.25)"/>
</svg>

