<?xml version="1.0" encoding="UTF-8"?>
<!DOCTYPE svg PUBLIC "-//W3C//DTD SVG 1.1//EN" "http://www.w3.org/Graphics/SVG/1.1/DTD/svg11.dtd">
<svg xmlns="http://www.w3.org/2000/svg" version="1.1" width="64px" height="64px" style="shape-rendering:geometricPrecision; text-rendering:geometricPrecision; image-rendering:optimizeQuality; fill-rule:evenodd; clip-rule:evenodd" xmlns:xlink="http://www.w3.org/1999/xlink">
<g><path style="opacity:0.995" fill="#05cb59" d="M 23.5,1.5 C 46.0736,-0.414737 59.0736,9.75193 62.5,32C 60.78,48.3844 51.9467,58.5511 36,62.5C 35.1663,58.9975 34.3329,55.4975 33.5,52C 41.8384,46.3341 42.5051,40.0008 35.5,33C 24.6461,31.5161 20.4794,36.0161 23,46.5C 24.7309,48.6166 26.8976,50.1166 29.5,51C 28.2907,54.0373 27.4574,57.204 27,60.5C 26.1074,61.0814 25.1074,61.4148 24,61.5C 1.861,52.7581 -4.47234,37.4248 5,15.5C 9.52595,8.50541 15.6926,3.83875 23.5,1.5 Z M 48.5,49.5 C 52.78,34.1155 47.1133,24.7822 31.5,21.5C 14.7632,24.6371 9.09656,34.3037 14.5,50.5C 7.52119,42.2396 6.68785,33.2396 12,23.5C 23.6931,10.9785 36.0264,10.3119 49,21.5C 53.8492,28.2232 55.1825,35.5565 53,43.5C 52.2082,46.1064 50.7082,48.1064 48.5,49.5 Z"/></g>
</svg>
