<?xml version="1.0" encoding="UTF-8"?>
<!DOCTYPE svg PUBLIC "-//W3C//DTD SVG 1.1//EN" "http://www.w3.org/Graphics/SVG/1.1/DTD/svg11.dtd">
<svg xmlns="http://www.w3.org/2000/svg" version="1.1" width="48px" height="48px" style="shape-rendering:geometricPrecision; text-rendering:geometricPrecision; image-rendering:optimizeQuality; fill-rule:evenodd; clip-rule:evenodd" xmlns:xlink="http://www.w3.org/1999/xlink">
<g><path style="opacity:0.999" fill="#84b3ff" d="M 13.5,6.5 C 15.1401,7.32006 16.8068,8.15339 18.5,9C 16.9095,10.0458 15.4095,11.2125 14,12.5C 13.5045,10.5273 13.3379,8.5273 13.5,6.5 Z"/></g>
<g><path style="opacity:0.984" fill="#85b2ff" d="M 23.5,9.5 C 27.1497,11.4717 30.8164,13.4717 34.5,15.5C 35.8333,20.8333 35.8333,26.1667 34.5,31.5C 30.8713,33.3001 27.3713,35.3001 24,37.5C 23.1764,34.1177 23.343,30.7844 24.5,27.5C 28.5,24.8333 28.5,22.1667 24.5,19.5C 23.513,16.2317 23.1796,12.8984 23.5,9.5 Z"/></g>
<g><path style="opacity:0.004" fill="#0000ff" d="M 18.5,11.5 C 19.8333,12.1667 19.8333,12.1667 18.5,11.5 Z"/></g>
<g><path style="opacity:0.987" fill="#85b3ff" d="M 18.5,12.5 C 18.6663,19.8409 18.4997,27.1742 18,34.5C 16.2467,33.373 14.4134,32.373 12.5,31.5C 11.1667,26.1667 11.1667,20.8333 12.5,15.5C 14.5266,14.4867 16.5266,13.4867 18.5,12.5 Z"/></g>
<g><path style="opacity:0.902" fill="#85b3ff" d="M 38.5,20.5 C 39.8149,21.4756 41.1482,22.4756 42.5,23.5C 38.8637,27.4939 37.5303,26.4939 38.5,20.5 Z"/></g>
<g><path style="opacity:0.999" fill="#84b2ff" d="M 13.5,34.5 C 15.1376,35.657 16.8043,36.8236 18.5,38C 16.9194,38.7065 15.4194,39.5399 14,40.5C 13.5045,38.5273 13.3379,36.5273 13.5,34.5 Z"/></g>
</svg>
