<?xml version="1.0" encoding="UTF-8"?>
<!DOCTYPE svg PUBLIC "-//W3C//DTD SVG 1.1//EN" "http://www.w3.org/Graphics/SVG/1.1/DTD/svg11.dtd">
<svg xmlns="http://www.w3.org/2000/svg" version="1.1" width="48px" height="48px" style="shape-rendering:geometricPrecision; text-rendering:geometricPrecision; image-rendering:optimizeQuality; fill-rule:evenodd; clip-rule:evenodd" xmlns:xlink="http://www.w3.org/1999/xlink">
<g><path style="opacity:0.754" fill="#8246e6" d="M 12.5,7.5 C 17.0128,7.588 21.0128,9.088 24.5,12C 26.1834,14.1831 26.85,16.3498 26.5,18.5C 27.9411,17.696 29.4411,17.0294 31,16.5C 34.2272,17.8635 37.3939,19.3635 40.5,21C 41.6324,25.4132 41.7991,29.9132 41,34.5C 31.0311,42.2572 23.8645,40.2572 19.5,28.5C 18.0589,29.304 16.5589,29.9706 15,30.5C 5.37383,28.224 2.0405,22.224 5,12.5C 7.47945,10.6859 9.97945,9.01922 12.5,7.5 Z M 13.5,13.5 C 18.5319,13.5108 21.1985,16.0108 21.5,21C 19.2537,22.0395 17.087,23.2062 15,24.5C 13.4157,23.1387 11.5824,22.472 9.5,22.5C 8.83629,18.4094 10.1696,15.4094 13.5,13.5 Z M 30.5,22.5 C 35.3643,23.1841 37.1976,25.8508 36,30.5C 33.2709,33.8639 30.2709,34.1972 27,31.5C 26.8371,29.324 26.0037,27.4907 24.5,26C 26.7274,25.059 28.7274,23.8923 30.5,22.5 Z"/></g>
</svg>
