<?xml version="1.0" encoding="UTF-8"?>
<!DOCTYPE svg PUBLIC "-//W3C//DTD SVG 1.1//EN" "http://www.w3.org/Graphics/SVG/1.1/DTD/svg11.dtd">
<svg xmlns="http://www.w3.org/2000/svg" version="1.1" width="48px" height="48px" style="shape-rendering:geometricPrecision; text-rendering:geometricPrecision; image-rendering:optimizeQuality; fill-rule:evenodd; clip-rule:evenodd" xmlns:xlink="http://www.w3.org/1999/xlink">
<g><path style="opacity:1" fill="#966dd8" d="M 15.5,21.5 C 14.8333,20.8333 14.1667,20.1667 13.5,19.5C 13.7828,18.7109 14.2828,18.0442 15,17.5C 15.49,18.7932 15.6567,20.1266 15.5,21.5 Z"/></g>
<g><path style="opacity:1" fill="#fb91c4" d="M 30.5,19.5 C 29.8333,19.5 29.1667,19.5 28.5,19.5C 29.5477,17.0673 30.2144,17.0673 30.5,19.5 Z"/></g>
<g><path style="opacity:1" fill="#e94174" d="M 32.5,18.5 C 33.791,18.2627 34.791,18.596 35.5,19.5C 35.5,19.8333 35.5,20.1667 35.5,20.5C 35.5,20.8333 35.5,21.1667 35.5,21.5C 35.1667,21.5 34.8333,21.5 34.5,21.5C 34.2178,20.2223 33.5511,19.2223 32.5,18.5 Z"/></g>
<g><path style="opacity:1" fill="#af86e4" d="M 19.5,20.5 C 18.7784,20.9175 18.2784,21.5842 18,22.5C 17.6174,21.944 17.1174,21.6107 16.5,21.5C 17.1451,20.1882 18.1451,19.1882 19.5,18.5C 20.463,18.9698 20.463,19.6365 19.5,20.5 Z"/></g>
<g><path style="opacity:1" fill="#cd7ec2" d="M 25.5,19.5 C 26.6226,18.2426 27.2893,18.5759 27.5,20.5C 27.1667,20.5 26.8333,20.5 26.5,20.5C 26.5,19.8333 26.1667,19.5 25.5,19.5 Z"/></g>
<g><path style="opacity:0.984" fill="#ee9bc7" d="M 32.5,18.5 C 33.5511,19.2223 34.2178,20.2223 34.5,21.5C 34.5,22.1667 34.1667,22.5 33.5,22.5C 32.8333,21.8333 32.1667,21.1667 31.5,20.5C 31.3284,19.5084 31.6618,18.8417 32.5,18.5 Z"/></g>
<g><path style="opacity:1" fill="#ec8b74" d="M 40.5,20.5 C 39.8333,20.5 39.1667,20.5 38.5,20.5C 39.5477,18.0673 40.2144,18.0673 40.5,20.5 Z"/></g>
<g><path style="opacity:1" fill="#b194ef" d="M 8.5,21.5 C 7.83333,21.5 7.16667,21.5 6.5,21.5C 7.31488,20.1634 8.48155,19.1634 10,18.5C 10.5847,19.9976 10.0847,20.9976 8.5,21.5 Z"/></g>
<g><path style="opacity:1" fill="#7f67ed" d="M 13.5,19.5 C 13.5,20.8333 12.8333,21.5 11.5,21.5C 11.8333,20.5 12.5,19.8333 13.5,19.5 Z"/></g>
<g><path style="opacity:1" fill="#c695da" d="M 23.5,20.5 C 23.5,20.8333 23.5,21.1667 23.5,21.5C 22.5,21.5 21.5,21.5 20.5,21.5C 21.6782,18.7835 22.6782,18.4501 23.5,20.5 Z"/></g>
<g><path style="opacity:0.353" fill="#d297db" d="M 25.5,19.5 C 26.1667,19.5 26.5,19.8333 26.5,20.5C 26.5,21.1667 26.1667,21.5 25.5,21.5C 24.8333,21.8333 24.1667,22.1667 23.5,22.5C 23.5,22.1667 23.5,21.8333 23.5,21.5C 23.5,21.1667 23.5,20.8333 23.5,20.5C 24.1667,20.1667 24.8333,19.8333 25.5,19.5 Z"/></g>
<g><path style="opacity:1" fill="#cf249c" d="M 28.5,19.5 C 29.1667,19.5 29.8333,19.5 30.5,19.5C 30.5,20.1667 30.5,20.8333 30.5,21.5C 29.8333,21.5 29.1667,21.5 28.5,21.5C 28.5,20.8333 28.5,20.1667 28.5,19.5 Z"/></g>
<g><path style="opacity:1" fill="#f58ba3" d="M 35.5,20.5 C 35.5,20.1667 35.5,19.8333 35.5,19.5C 37.0481,19.8212 37.7148,20.8212 37.5,22.5C 36.8333,22.5 36.1667,22.5 35.5,22.5C 35.5,22.1667 35.5,21.8333 35.5,21.5C 36.8333,21.1667 36.8333,20.8333 35.5,20.5 Z"/></g>
<g><path style="opacity:1" fill="#6b55f3" d="M 13.5,19.5 C 14.1667,20.1667 14.8333,20.8333 15.5,21.5C 15.5,21.8333 15.5,22.1667 15.5,22.5C 14.6618,22.8417 14.3284,23.5084 14.5,24.5C 13.8897,26.8503 13.5563,26.517 13.5,23.5C 13.1583,22.6618 12.4916,22.3284 11.5,22.5C 11.5,22.1667 11.5,21.8333 11.5,21.5C 12.8333,21.5 13.5,20.8333 13.5,19.5 Z"/></g>
<g><path style="opacity:1" fill="#ae38b6" d="M 26.5,20.5 C 26.8333,20.5 27.1667,20.5 27.5,20.5C 27.5,21.1667 27.8333,21.5 28.5,21.5C 28.5,21.8333 28.5,22.1667 28.5,22.5C 27.8333,22.5 27.1667,22.5 26.5,22.5C 26.1667,22.5 25.8333,22.5 25.5,22.5C 25.5,22.1667 25.5,21.8333 25.5,21.5C 26.1667,21.5 26.5,21.1667 26.5,20.5 Z"/></g>
<g><path style="opacity:1" fill="#f25458" d="M 38.5,20.5 C 39.1667,20.5 39.8333,20.5 40.5,20.5C 40.5,21.5 40.5,22.5 40.5,23.5C 39.8333,23.1667 39.1667,22.8333 38.5,22.5C 38.5,21.8333 38.5,21.1667 38.5,20.5 Z"/></g>
<g><path style="opacity:1" fill="#725df3" d="M 6.5,21.5 C 7.16667,21.5 7.83333,21.5 8.5,21.5C 8.5,22.1667 8.83333,22.5 9.5,22.5C 9.5,23.1667 9.5,23.8333 9.5,24.5C 8.82803,25.2674 7.9947,25.9341 7,26.5C 6.54392,25.2559 7.04392,24.4226 8.5,24C 7.61947,23.2917 6.9528,22.4584 6.5,21.5 Z"/></g>
<g><path style="opacity:1" fill="#7a5df8" d="M 19.5,20.5 C 19.3284,21.4916 19.6618,22.1583 20.5,22.5C 20.5,22.8333 20.5,23.1667 20.5,23.5C 19.8333,23.5 19.5,23.8333 19.5,24.5C 18.6043,23.4937 17.9377,23.4937 17.5,24.5C 17.1667,24.5 16.8333,24.5 16.5,24.5C 16.5,23.8333 16.5,23.1667 16.5,22.5C 16.5,22.1667 16.5,21.8333 16.5,21.5C 17.1174,21.6107 17.6174,21.944 18,22.5C 18.2784,21.5842 18.7784,20.9175 19.5,20.5 Z"/></g>
<g><path style="opacity:1" fill="#9a5fe8" d="M 20.5,22.5 C 20.5,22.1667 20.5,21.8333 20.5,21.5C 21.5,21.5 22.5,21.5 23.5,21.5C 23.5,21.8333 23.5,22.1667 23.5,22.5C 23.5,22.8333 23.5,23.1667 23.5,23.5C 22.391,23.4431 21.391,23.1098 20.5,22.5 Z"/></g>
<g><path style="opacity:1" fill="#c633af" d="M 28.5,22.5 C 28.5,22.1667 28.5,21.8333 28.5,21.5C 29.1667,21.5 29.8333,21.5 30.5,21.5C 30.5,21.8333 30.5,22.1667 30.5,22.5C 30.5,22.8333 30.5,23.1667 30.5,23.5C 29.8333,23.1667 29.1667,22.8333 28.5,22.5 Z"/></g>
<g><path style="opacity:1" fill="#d32498" d="M 31.5,20.5 C 32.1667,21.1667 32.8333,21.8333 33.5,22.5C 33.8333,23.1667 34.1667,23.8333 34.5,24.5C 33.8333,24.5 33.1667,24.5 32.5,24.5C 32.1667,23.8333 31.8333,23.1667 31.5,22.5C 31.5,21.8333 31.5,21.1667 31.5,20.5 Z"/></g>
<g><path style="opacity:1" fill="#7162e5" d="M 9.5,22.5 C 10.1667,22.5 10.8333,22.5 11.5,22.5C 12.4916,22.3284 13.1583,22.6618 13.5,23.5C 12.1667,23.8333 10.8333,24.1667 9.5,24.5C 9.5,23.8333 9.5,23.1667 9.5,22.5 Z"/></g>
<g><path style="opacity:1" fill="#9d8bf2" d="M 15.5,22.5 C 15.8333,22.5 16.1667,22.5 16.5,22.5C 16.5,23.1667 16.5,23.8333 16.5,24.5C 16.0623,25.5063 15.3957,25.5063 14.5,24.5C 14.3284,23.5084 14.6618,22.8417 15.5,22.5 Z"/></g>
<g><path style="opacity:1" fill="#7851f1" d="M 20.5,22.5 C 21.391,23.1098 22.391,23.4431 23.5,23.5C 24.1667,23.5 24.5,23.8333 24.5,24.5C 23.209,24.2627 22.209,24.596 21.5,25.5C 20.5798,26.0674 20.2465,25.4008 20.5,23.5C 20.5,23.1667 20.5,22.8333 20.5,22.5 Z"/></g>
<g><path style="opacity:1" fill="#b472d9" d="M 25.5,22.5 C 25.8333,22.5 26.1667,22.5 26.5,22.5C 26.8333,23.1667 27.1667,23.8333 27.5,24.5C 25.7354,25.4614 23.7354,25.7947 21.5,25.5C 22.209,24.596 23.209,24.2627 24.5,24.5C 25.3382,24.1583 25.6716,23.4916 25.5,22.5 Z"/></g>
<g><path style="opacity:1" fill="#a236b5" d="M 26.5,22.5 C 27.1667,22.5 27.8333,22.5 28.5,22.5C 28.5,23.1667 28.5,23.8333 28.5,24.5C 28.1667,24.5 27.8333,24.5 27.5,24.5C 27.1667,23.8333 26.8333,23.1667 26.5,22.5 Z"/></g>
<g><path style="opacity:1" fill="#bb74bc" d="M 28.5,22.5 C 29.1667,22.8333 29.8333,23.1667 30.5,23.5C 30.5,24.1667 30.5,24.8333 30.5,25.5C 29.8333,25.1667 29.1667,24.8333 28.5,24.5C 28.5,23.8333 28.5,23.1667 28.5,22.5 Z"/></g>
<g><path style="opacity:1" fill="#dd70c8" d="M 30.5,22.5 C 30.8333,22.5 31.1667,22.5 31.5,22.5C 31.8333,23.1667 32.1667,23.8333 32.5,24.5C 31.9941,26.1054 31.3274,26.4387 30.5,25.5C 30.5,24.8333 30.5,24.1667 30.5,23.5C 30.5,23.1667 30.5,22.8333 30.5,22.5 Z"/></g>
<g><path style="opacity:1" fill="#eb2f7c" d="M 35.5,22.5 C 36.1667,22.5 36.8333,22.5 37.5,22.5C 37.8333,22.5 38.1667,22.5 38.5,22.5C 38.5,23.1667 38.5,23.8333 38.5,24.5C 37.5,24.5 36.5,24.5 35.5,24.5C 35.5,23.8333 35.5,23.1667 35.5,22.5 Z"/></g>
<g><path style="opacity:1" fill="#d0647b" d="M 38.5,22.5 C 39.1667,22.8333 39.8333,23.1667 40.5,23.5C 40.5,24.8333 39.8333,25.5 38.5,25.5C 38.5,25.1667 38.5,24.8333 38.5,24.5C 38.5,23.8333 38.5,23.1667 38.5,22.5 Z"/></g>
<g><path style="opacity:1" fill="#9e8efc" d="M 19.5,24.5 C 19.2144,26.9327 18.5477,26.9327 17.5,24.5C 17.9377,23.4937 18.6043,23.4937 19.5,24.5 Z"/></g>
<g><path style="opacity:1" fill="#ee679f" d="M 34.5,24.5 C 34.8333,24.5 35.1667,24.5 35.5,24.5C 36.5,24.5 37.5,24.5 38.5,24.5C 38.5,24.8333 38.5,25.1667 38.5,25.5C 36.9988,26.4427 35.6654,26.1094 34.5,24.5 Z"/></g>
<g><path style="opacity:0.569" fill="#696678" d="M 14.5,28.5 C 15.8333,29.1667 15.8333,29.1667 14.5,28.5 Z"/></g>
<g><path style="opacity:0.02" fill="#feffcb" d="M 17.5,28.5 C 18.8333,29.1667 18.8333,29.1667 17.5,28.5 Z"/></g>
<g><path style="opacity:0.118" fill="#4b4c54" d="M 23.5,28.5 C 24.8333,29.1667 24.8333,29.1667 23.5,28.5 Z"/></g>
<g><path style="opacity:1" fill="#868497" d="M 27.5,28.5 C 28.8333,29.1667 28.8333,29.1667 27.5,28.5 Z"/></g>
<g><path style="opacity:0.024" fill="#d4d5fe" d="M 29.5,28.5 C 30.8333,29.1667 30.8333,29.1667 29.5,28.5 Z"/></g>
<g><path style="opacity:0.09" fill="#797a79" d="M 31.5,28.5 C 32.8333,29.1667 32.8333,29.1667 31.5,28.5 Z"/></g>
</svg>
