<?xml version="1.0" encoding="UTF-8"?>
<!DOCTYPE svg PUBLIC "-//W3C//DTD SVG 1.1//EN" "http://www.w3.org/Graphics/SVG/1.1/DTD/svg11.dtd">
<svg xmlns="http://www.w3.org/2000/svg" version="1.1" width="48px" height="48px" style="shape-rendering:geometricPrecision; text-rendering:geometricPrecision; image-rendering:optimizeQuality; fill-rule:evenodd; clip-rule:evenodd" xmlns:xlink="http://www.w3.org/1999/xlink">
<g><path style="opacity:0.95" fill="#171919" d="M 33.5,34.5 C 32.657,36.1733 31.3237,37.34 29.5,38C 17.2682,40.6019 9.93488,35.7685 7.5,23.5C 9.93488,11.2315 17.2682,6.39813 29.5,9C 38.7023,14.321 41.2023,21.821 37,31.5C 35.9609,32.7101 34.7942,33.7101 33.5,34.5 Z"/></g>
<g><path style="opacity:1" fill="#f6c041" d="M 30.5,14.5 C 29.0413,14.5674 27.7079,14.2341 26.5,13.5C 28.2565,10.8523 29.5899,11.1857 30.5,14.5 Z"/></g>
<g><path style="opacity:1" fill="#25241d" d="M 26.5,13.5 C 27.7079,14.2341 29.0413,14.5674 30.5,14.5C 33.3362,15.9947 34.3362,18.1614 33.5,21C 34.5156,21.5194 35.1822,22.3527 35.5,23.5C 33.6239,24.9902 32.9572,26.6569 33.5,28.5C 32.2247,30.2579 31.2247,31.9246 30.5,33.5C 29.0646,32.9035 27.398,32.9035 25.5,33.5C 23.9731,33.573 22.9731,32.9063 22.5,31.5C 21.7377,29.7376 20.4044,28.7376 18.5,28.5C 17.9898,25.6122 18.6565,23.2789 20.5,21.5C 19.0536,20.3871 17.3869,20.2204 15.5,21C 17.2826,22.0665 17.7826,23.5665 17,25.5C 16.6174,24.944 16.1174,24.6107 15.5,24.5C 15.1307,22.5588 14.464,20.7255 13.5,19C 14.2524,18.3292 14.5858,17.4959 14.5,16.5C 15.5,16.1667 16.1667,15.5 16.5,14.5C 17.9587,14.5674 19.2921,14.2341 20.5,13.5C 22.5,10.8333 24.5,10.8333 26.5,13.5 Z"/></g>
<g><path style="opacity:1" fill="#f95114" d="M 20.5,13.5 C 19.2921,14.2341 17.9587,14.5674 16.5,14.5C 16.5,14.1667 16.5,13.8333 16.5,13.5C 17.9613,12.3143 19.2946,12.3143 20.5,13.5 Z"/></g>
<g><path style="opacity:1" fill="#a2394c" d="M 16.5,13.5 C 16.5,13.8333 16.5,14.1667 16.5,14.5C 16.1667,15.5 15.5,16.1667 14.5,16.5C 13.6618,16.1583 13.3284,15.4916 13.5,14.5C 14.209,13.596 15.209,13.2627 16.5,13.5 Z"/></g>
<g><path style="opacity:1" fill="#ac59c1" d="M 13.5,14.5 C 13.3284,15.4916 13.6618,16.1583 14.5,16.5C 14.5858,17.4959 14.2524,18.3292 13.5,19C 14.464,20.7255 15.1307,22.5588 15.5,24.5C 14.2101,23.9423 13.3768,22.9423 13,21.5C 12.2042,18.9615 12.3709,16.6282 13.5,14.5 Z"/></g>
<g><path style="opacity:1" fill="#e8e280" d="M 27.5,21.5 C 28.8488,20.2035 30.1821,20.3702 31.5,22C 30.1807,22.195 28.8474,22.0283 27.5,21.5 Z"/></g>
<g><path style="opacity:1" fill="#f1ec85" d="M 29.5,24.5 C 29.56,23.9569 29.8933,23.6236 30.5,23.5C 31.3857,24.325 31.719,25.325 31.5,26.5C 30.1266,26.6567 28.7932,26.49 27.5,26C 29.3427,25.8413 30.0093,25.3413 29.5,24.5 Z"/></g>
<g><path style="opacity:1" fill="#bdb986" d="M 20.5,21.5 C 21.7382,20.5876 23.0715,20.4209 24.5,21C 20.5,22.6667 20.5,24.3333 24.5,26C 21.0699,26.6378 19.7366,25.1378 20.5,21.5 Z"/></g>
<g><path style="opacity:1" fill="#9096c6" d="M 20.5,21.5 C 18.6565,23.2789 17.9898,25.6122 18.5,28.5C 16.7376,27.7377 15.7376,26.4044 15.5,24.5C 16.1174,24.6107 16.6174,24.944 17,25.5C 17.7826,23.5665 17.2826,22.0665 15.5,21C 17.3869,20.2204 19.0536,20.3871 20.5,21.5 Z"/></g>
<g><path style="opacity:1" fill="#29a29b" d="M 18.5,28.5 C 20.4044,28.7376 21.7377,29.7376 22.5,31.5C 20.5956,31.2624 19.2623,30.2624 18.5,28.5 Z"/></g>
<g><path style="opacity:1" fill="#25a1f2" d="M 12.5,26.5 C 15.3005,28.0655 15.8005,30.0655 14,32.5C 12.6814,30.7505 12.1814,28.7505 12.5,26.5 Z"/></g>
<g><path style="opacity:1" fill="#62da80" d="M 33.5,28.5 C 33.5,30.5 33.5,32.5 33.5,34.5C 31.6656,35.494 29.9989,35.494 28.5,34.5C 29.4916,34.6716 30.1583,34.3382 30.5,33.5C 31.2247,31.9246 32.2247,30.2579 33.5,28.5 Z"/></g>
<g><path style="opacity:1" fill="#268358" d="M 30.5,33.5 C 30.1583,34.3382 29.4916,34.6716 28.5,34.5C 27.209,34.7373 26.209,34.404 25.5,33.5C 27.398,32.9035 29.0646,32.9035 30.5,33.5 Z"/></g>
</svg>
