<svg xmlns="http://www.w3.org/2000/svg" xmlns:xlink="http://www.w3.org/1999/xlink" width="20.323" height="20.323" viewBox="0 0 20.323 20.323">
  <defs>
    <filter id="Path_455">
      <feOffset dy="3" input="SourceAlpha"/>
      <feGaussianBlur stdDeviation="3" result="blur"/>
      <feFlood flood-opacity="0.161" result="color"/>
      <feComposite operator="out" in="SourceGraphic" in2="blur"/>
      <feComposite operator="in" in="color"/>
      <feComposite operator="in" in2="SourceGraphic"/>
    </filter>
  </defs>
  <g data-type="innerShadowGroup">
    <path id="Path_455-2" data-name="Path 455" d="M12.036,3h.083c1.05,0,1.9,0,2.58.062a4.445,4.445,0,0,1,1.878.522,4.354,4.354,0,0,1,1.594,1.594,4.446,4.446,0,0,1,.522,1.878c.062.683.062,1.53.062,2.58v.337c.166,0,.318.009.459.019a3.279,3.279,0,0,1,1.053.219A3.194,3.194,0,0,1,22,11.939a3.277,3.277,0,0,1,.219,1.053c.024.354.024.785.024,1.3v2.933a.871.871,0,0,0,1.742,0V10.639c0-.25,0-.39-.009-.495a.662.662,0,0,0-.01-.085l0-.011h0l-.006-.009a.679.679,0,0,0-.053-.068c-.069-.08-.167-.179-.344-.356L21.913,7.971a.871.871,0,0,1,1.232-1.232l1.642,1.642.066.066a2.971,2.971,0,0,1,.715.934,2.972,2.972,0,0,1,.155,1.166v6.679a2.613,2.613,0,0,1-5.226,0v-2.9c0-.553,0-.924-.02-1.212a1.6,1.6,0,0,0-.09-.505,1.452,1.452,0,0,0-.786-.786,1.6,1.6,0,0,0-.505-.09c-.1-.007-.214-.011-.341-.014V23.323H5.4V9.636c0-1.05,0-1.9.062-2.58a4.445,4.445,0,0,1,.522-1.878A4.355,4.355,0,0,1,7.577,3.583a4.445,4.445,0,0,1,1.878-.522C10.139,3,10.986,3,12.036,3Zm-3.4,5.063A5.83,5.83,0,0,0,8.594,9.1a5.83,5.83,0,0,0,.045,1.034,2.323,2.323,0,0,0,1.825,1.825A5.83,5.83,0,0,0,11.5,12h1.161a5.83,5.83,0,0,0,1.034-.045,2.323,2.323,0,0,0,1.825-1.825A5.835,5.835,0,0,0,15.561,9.1a5.835,5.835,0,0,0-.045-1.034,2.323,2.323,0,0,0-1.825-1.825,5.83,5.83,0,0,0-1.034-.045H11.5a5.83,5.83,0,0,0-1.034.045A2.323,2.323,0,0,0,8.638,8.063Z" transform="translate(-5.4 -3)" fill="currentColor" fill-rule="evenodd"/>
    <g transform="matrix(1, 0, 0, 1, 0, 0)" filter="url(#Path_455)">
      <path id="Path_455-3" data-name="Path 455" d="M12.036,3h.083c1.05,0,1.9,0,2.58.062a4.445,4.445,0,0,1,1.878.522,4.354,4.354,0,0,1,1.594,1.594,4.446,4.446,0,0,1,.522,1.878c.062.683.062,1.53.062,2.58v.337c.166,0,.318.009.459.019a3.279,3.279,0,0,1,1.053.219A3.194,3.194,0,0,1,22,11.939a3.277,3.277,0,0,1,.219,1.053c.024.354.024.785.024,1.3v2.933a.871.871,0,0,0,1.742,0V10.639c0-.25,0-.39-.009-.495a.662.662,0,0,0-.01-.085l0-.011h0l-.006-.009a.679.679,0,0,0-.053-.068c-.069-.08-.167-.179-.344-.356L21.913,7.971a.871.871,0,0,1,1.232-1.232l1.642,1.642.066.066a2.971,2.971,0,0,1,.715.934,2.972,2.972,0,0,1,.155,1.166v6.679a2.613,2.613,0,0,1-5.226,0v-2.9c0-.553,0-.924-.02-1.212a1.6,1.6,0,0,0-.09-.505,1.452,1.452,0,0,0-.786-.786,1.6,1.6,0,0,0-.505-.09c-.1-.007-.214-.011-.341-.014V23.323H5.4V9.636c0-1.05,0-1.9.062-2.58a4.445,4.445,0,0,1,.522-1.878A4.355,4.355,0,0,1,7.577,3.583a4.445,4.445,0,0,1,1.878-.522C10.139,3,10.986,3,12.036,3Zm-3.4,5.063A5.83,5.83,0,0,0,8.594,9.1a5.83,5.83,0,0,0,.045,1.034,2.323,2.323,0,0,0,1.825,1.825A5.83,5.83,0,0,0,11.5,12h1.161a5.83,5.83,0,0,0,1.034-.045,2.323,2.323,0,0,0,1.825-1.825A5.835,5.835,0,0,0,15.561,9.1a5.835,5.835,0,0,0-.045-1.034,2.323,2.323,0,0,0-1.825-1.825,5.83,5.83,0,0,0-1.034-.045H11.5a5.83,5.83,0,0,0-1.034.045A2.323,2.323,0,0,0,8.638,8.063Z" transform="translate(-5.4 -3)" fill="#fff" fill-rule="evenodd"/>
    </g>
  </g>
</svg>
